<svg width="83" height="17" viewBox="0 0 83 17" fill="none" xmlns="http://www.w3.org/2000/svg">
<path d="M7 2L9.37943 5.98865L14 6.96556L10.85 10.4076L11.3262 15L7 13.1386L2.67376 15L3.15 10.4076L0 6.96556L4.62057 5.98865L7 2Z" fill="#FFCB45"/>
<path d="M23 2L25.3794 5.98865L30 6.96556L26.85 10.4076L27.3262 15L23 13.1386L18.6738 15L19.15 10.4076L16 6.96556L20.6206 5.98865L23 2Z" fill="#FFCB45"/>
<path d="M39 2L41.3794 5.98865L46 6.96556L42.85 10.4076L43.3262 15L39 13.1386L34.6738 15L35.15 10.4076L32 6.96556L36.6206 5.98865L39 2Z" fill="#FFCB45"/>
<path d="M55 2L57.3794 5.98865L62 6.96556L58.85 10.4076L59.3262 15L55 13.1386L50.6738 15L51.15 10.4076L48 6.96556L52.6206 5.98865L55 2Z" fill="#FFCB45"/>
<path d="M71 2L73.3794 5.98865L78 6.96556L74.85 10.4076L75.3262 15L71 13.1386L66.6738 15L67.15 10.4076L64 6.96556L68.6206 5.98865L71 2Z" fill="#F2F2F2"/>
<path d="M66.6738 15L71 13.1386V2L68.6206 5.98865L64 6.96556L67.15 10.4076L66.6738 15Z" fill="#FFCB45"/>
</svg>
